<svg width="67" height="12" viewBox="0 0 67 12" fill="none" xmlns="http://www.w3.org/2000/svg">
<g clip-path="url(#clip0_6314_4882)">
<g clip-path="url(#clip1_6314_4882)">
<path d="M6.29346 1.24511C6.2348 1.12777 6.15046 1.03427 6.04046 0.964606C5.93046 0.894939 5.80946 0.860106 5.67746 0.860106C5.54546 0.860106 5.42263 0.894939 5.30896 0.964606C5.19529 1.03427 5.10913 1.12777 5.05046 1.24511L3.67546 4.09411L0.584462 4.54511C0.459795 4.55977 0.346128 4.60927 0.243462 4.69361C0.140795 4.77794 0.0711285 4.88244 0.0344618 5.00711C-0.00220486 5.13177 -0.00587153 5.25827 0.0234618 5.38661C0.0527951 5.51494 0.115128 5.62311 0.210462 5.71111L2.44346 7.93311L1.91546 11.0571C1.89346 11.1891 1.90813 11.3138 1.95946 11.4311C2.0108 11.5484 2.0878 11.6474 2.19046 11.7281C2.29313 11.8088 2.41046 11.8528 2.54246 11.8601C2.67446 11.8674 2.79913 11.8418 2.91646 11.7831L5.67746 10.3091L8.43846 11.7831C8.55579 11.8418 8.67863 11.8674 8.80696 11.8601C8.9353 11.8528 9.05446 11.8106 9.16446 11.7336C9.27446 11.6566 9.3533 11.5576 9.40096 11.4366C9.44863 11.3156 9.46146 11.1891 9.43946 11.0571L8.90046 7.93311L11.1445 5.71111C11.2398 5.62311 11.3021 5.51494 11.3315 5.38661C11.3608 5.25827 11.3535 5.13177 11.3095 5.00711C11.2655 4.88244 11.1958 4.77794 11.1005 4.69361C11.0051 4.60927 10.8915 4.55977 10.7595 4.54511L7.67946 4.09411L6.29346 1.24511Z" fill="#D1D5DB"/>
<path d="M19.6685 1.24511C19.6098 1.12777 19.5255 1.03427 19.4155 0.964606C19.3055 0.894939 19.1845 0.860106 19.0525 0.860106C18.9205 0.860106 18.7976 0.894939 18.684 0.964606C18.5703 1.03427 18.4841 1.12777 18.4255 1.24511L17.0505 4.09411L13.9595 4.54511C13.8348 4.55977 13.7211 4.60927 13.6185 4.69361C13.5158 4.77794 13.4461 4.88244 13.4095 5.00711C13.3728 5.13177 13.3691 5.25827 13.3985 5.38661C13.4278 5.51494 13.4901 5.62311 13.5855 5.71111L15.8185 7.93311L15.2905 11.0571C15.2685 11.1891 15.2831 11.3138 15.3345 11.4311C15.3858 11.5484 15.4628 11.6474 15.5655 11.7281C15.6681 11.8088 15.7855 11.8528 15.9175 11.8601C16.0495 11.8674 16.1741 11.8418 16.2915 11.7831L19.0525 10.3091L21.8135 11.7831C21.9308 11.8418 22.0536 11.8674 22.182 11.8601C22.3103 11.8528 22.4295 11.8106 22.5395 11.7336C22.6495 11.6566 22.7283 11.5576 22.776 11.4366C22.8236 11.3156 22.8365 11.1891 22.8145 11.0571L22.2755 7.93311L24.5195 5.71111C24.6148 5.62311 24.6771 5.51494 24.7065 5.38661C24.7358 5.25827 24.7285 5.13177 24.6845 5.00711C24.6405 4.88244 24.5708 4.77794 24.4755 4.69361C24.3801 4.60927 24.2665 4.55977 24.1345 4.54511L21.0545 4.09411L19.6685 1.24511Z" fill="#D1D5DB"/>
<path d="M33.0435 1.24511C32.9848 1.12777 32.9005 1.03427 32.7905 0.964606C32.6805 0.894939 32.5595 0.860106 32.4275 0.860106C32.2955 0.860106 32.1726 0.894939 32.059 0.964606C31.9453 1.03427 31.8591 1.12777 31.8005 1.24511L30.4255 4.09411L27.3345 4.54511C27.2098 4.55977 27.0961 4.60927 26.9935 4.69361C26.8908 4.77794 26.8211 4.88244 26.7845 5.00711C26.7478 5.13177 26.7441 5.25827 26.7735 5.38661C26.8028 5.51494 26.8651 5.62311 26.9605 5.71111L29.1935 7.93311L28.6655 11.0571C28.6435 11.1891 28.6581 11.3138 28.7095 11.4311C28.7608 11.5484 28.8378 11.6474 28.9405 11.7281C29.0431 11.8088 29.1605 11.8528 29.2925 11.8601C29.4245 11.8674 29.5491 11.8418 29.6665 11.7831L32.4275 10.3091L35.1885 11.7831C35.3058 11.8418 35.4286 11.8674 35.557 11.8601C35.6853 11.8528 35.8045 11.8106 35.9145 11.7336C36.0245 11.6566 36.1033 11.5576 36.151 11.4366C36.1986 11.3156 36.2115 11.1891 36.1895 11.0571L35.6505 7.93311L37.8945 5.71111C37.9898 5.62311 38.0521 5.51494 38.0815 5.38661C38.1108 5.25827 38.1035 5.13177 38.0595 5.00711C38.0155 4.88244 37.9458 4.77794 37.8505 4.69361C37.7551 4.60927 37.6415 4.55977 37.5095 4.54511L34.4295 4.09411L33.0435 1.24511Z" fill="#D1D5DB"/>
<path d="M46.4185 1.24511C46.3598 1.12777 46.2755 1.03427 46.1655 0.964606C46.0555 0.894939 45.9345 0.860106 45.8025 0.860106C45.6705 0.860106 45.5476 0.894939 45.434 0.964606C45.3203 1.03427 45.2341 1.12777 45.1755 1.24511L43.8005 4.09411L40.7095 4.54511C40.5848 4.55977 40.4711 4.60927 40.3685 4.69361C40.2658 4.77794 40.1961 4.88244 40.1595 5.00711C40.1228 5.13177 40.1191 5.25827 40.1485 5.38661C40.1778 5.51494 40.2401 5.62311 40.3355 5.71111L42.5685 7.93311L42.0405 11.0571C42.0185 11.1891 42.0331 11.3138 42.0845 11.4311C42.1358 11.5484 42.2128 11.6474 42.3155 11.7281C42.4181 11.8088 42.5355 11.8528 42.6675 11.8601C42.7995 11.8674 42.9241 11.8418 43.0415 11.7831L45.8025 10.3091L48.5635 11.7831C48.6808 11.8418 48.8036 11.8674 48.932 11.8601C49.0603 11.8528 49.1795 11.8106 49.2895 11.7336C49.3995 11.6566 49.4783 11.5576 49.526 11.4366C49.5736 11.3156 49.5865 11.1891 49.5645 11.0571L49.0255 7.93311L51.2695 5.71111C51.3648 5.62311 51.4271 5.51494 51.4565 5.38661C51.4858 5.25827 51.4785 5.13177 51.4345 5.00711C51.3905 4.88244 51.3208 4.77794 51.2255 4.69361C51.1301 4.60927 51.0165 4.55977 50.8845 4.54511L47.8045 4.09411L46.4185 1.24511Z" fill="#D1D5DB"/>
<path d="M59.7935 1.24511C59.7348 1.12777 59.6505 1.03427 59.5405 0.964606C59.4305 0.894939 59.3095 0.860106 59.1775 0.860106C59.0455 0.860106 58.9226 0.894939 58.809 0.964606C58.6953 1.03427 58.6091 1.12777 58.5505 1.24511L57.1755 4.09411L54.0845 4.54511C53.9598 4.55977 53.8461 4.60927 53.7435 4.69361C53.6408 4.77794 53.5711 4.88244 53.5345 5.00711C53.4978 5.13177 53.4941 5.25827 53.5235 5.38661C53.5528 5.51494 53.6151 5.62311 53.7105 5.71111L55.9435 7.93311L55.4155 11.0571C55.3935 11.1891 55.4081 11.3138 55.4595 11.4311C55.5108 11.5484 55.5878 11.6474 55.6905 11.7281C55.7931 11.8088 55.9105 11.8528 56.0425 11.8601C56.1745 11.8674 56.2991 11.8418 56.4165 11.7831L59.1775 10.3091L61.9385 11.7831C62.0558 11.8418 62.1786 11.8674 62.307 11.8601C62.4353 11.8528 62.5545 11.8106 62.6645 11.7336C62.7745 11.6566 62.8533 11.5576 62.901 11.4366C62.9486 11.3156 62.9615 11.1891 62.9395 11.0571L62.4005 7.93311L64.6445 5.71111C64.7398 5.62311 64.8021 5.51494 64.8315 5.38661C64.8608 5.25827 64.8535 5.13177 64.8095 5.00711C64.7655 4.88244 64.6958 4.77794 64.6005 4.69361C64.5051 4.60927 64.3915 4.55977 64.2595 4.54511L61.1795 4.09411L59.7935 1.24511Z" fill="#D1D5DB"/>
</g>
<g clip-path="url(#clip2_6314_4882)">
<g clip-path="url(#clip3_6314_4882)">
<path d="M6.29346 1.24511C6.2348 1.12777 6.15046 1.03427 6.04046 0.964606C5.93046 0.894939 5.80946 0.860106 5.67746 0.860106C5.54546 0.860106 5.42263 0.894939 5.30896 0.964606C5.19529 1.03427 5.10913 1.12777 5.05046 1.24511L3.67546 4.09411L0.584462 4.54511C0.459795 4.55977 0.346128 4.60927 0.243462 4.69361C0.140795 4.77794 0.0711285 4.88244 0.0344618 5.00711C-0.00220486 5.13177 -0.00587153 5.25827 0.0234618 5.38661C0.0527951 5.51494 0.115128 5.62311 0.210462 5.71111L2.44346 7.93311L1.91546 11.0571C1.89346 11.1891 1.90813 11.3138 1.95946 11.4311C2.0108 11.5484 2.0878 11.6474 2.19046 11.7281C2.29313 11.8088 2.41046 11.8528 2.54246 11.8601C2.67446 11.8674 2.79913 11.8418 2.91646 11.7831L5.67746 10.3091L8.43846 11.7831C8.55579 11.8418 8.67863 11.8674 8.80696 11.8601C8.9353 11.8528 9.05446 11.8106 9.16446 11.7336C9.27446 11.6566 9.3533 11.5576 9.40096 11.4366C9.44863 11.3156 9.46146 11.1891 9.43946 11.0571L8.90046 7.93311L11.1445 5.71111C11.2398 5.62311 11.3021 5.51494 11.3315 5.38661C11.3608 5.25827 11.3535 5.13177 11.3095 5.00711C11.2655 4.88244 11.1958 4.77794 11.1005 4.69361C11.0051 4.60927 10.8915 4.55977 10.7595 4.54511L7.67946 4.09411L6.29346 1.24511Z" fill="#FACC15"/>
<path d="M19.6685 1.24511C19.6098 1.12777 19.5255 1.03427 19.4155 0.964606C19.3055 0.894939 19.1845 0.860106 19.0525 0.860106C18.9205 0.860106 18.7976 0.894939 18.684 0.964606C18.5703 1.03427 18.4841 1.12777 18.4255 1.24511L17.0505 4.09411L13.9595 4.54511C13.8348 4.55977 13.7211 4.60927 13.6185 4.69361C13.5158 4.77794 13.4461 4.88244 13.4095 5.00711C13.3728 5.13177 13.3691 5.25827 13.3985 5.38661C13.4278 5.51494 13.4901 5.62311 13.5855 5.71111L15.8185 7.93311L15.2905 11.0571C15.2685 11.1891 15.2831 11.3138 15.3345 11.4311C15.3858 11.5484 15.4628 11.6474 15.5655 11.7281C15.6681 11.8088 15.7855 11.8528 15.9175 11.8601C16.0495 11.8674 16.1741 11.8418 16.2915 11.7831L19.0525 10.3091L21.8135 11.7831C21.9308 11.8418 22.0536 11.8674 22.182 11.8601C22.3103 11.8528 22.4295 11.8106 22.5395 11.7336C22.6495 11.6566 22.7283 11.5576 22.776 11.4366C22.8236 11.3156 22.8365 11.1891 22.8145 11.0571L22.2755 7.93311L24.5195 5.71111C24.6148 5.62311 24.6771 5.51494 24.7065 5.38661C24.7358 5.25827 24.7285 5.13177 24.6845 5.00711C24.6405 4.88244 24.5708 4.77794 24.4755 4.69361C24.3801 4.60927 24.2665 4.55977 24.1345 4.54511L21.0545 4.09411L19.6685 1.24511Z" fill="#FACC15"/>
<path d="M33.0435 1.24511C32.9848 1.12777 32.9005 1.03427 32.7905 0.964606C32.6805 0.894939 32.5595 0.860106 32.4275 0.860106C32.2955 0.860106 32.1726 0.894939 32.059 0.964606C31.9453 1.03427 31.8591 1.12777 31.8005 1.24511L30.4255 4.09411L27.3345 4.54511C27.2098 4.55977 27.0961 4.60927 26.9935 4.69361C26.8908 4.77794 26.8211 4.88244 26.7845 5.00711C26.7478 5.13177 26.7441 5.25827 26.7735 5.38661C26.8028 5.51494 26.8651 5.62311 26.9605 5.71111L29.1935 7.93311L28.6655 11.0571C28.6435 11.1891 28.6581 11.3138 28.7095 11.4311C28.7608 11.5484 28.8378 11.6474 28.9405 11.7281C29.0431 11.8088 29.1605 11.8528 29.2925 11.8601C29.4245 11.8674 29.5491 11.8418 29.6665 11.7831L32.4275 10.3091L35.1885 11.7831C35.3058 11.8418 35.4286 11.8674 35.557 11.8601C35.6853 11.8528 35.8045 11.8106 35.9145 11.7336C36.0245 11.6566 36.1033 11.5576 36.151 11.4366C36.1986 11.3156 36.2115 11.1891 36.1895 11.0571L35.6505 7.93311L37.8945 5.71111C37.9898 5.62311 38.0521 5.51494 38.0815 5.38661C38.1108 5.25827 38.1035 5.13177 38.0595 5.00711C38.0155 4.88244 37.9458 4.77794 37.8505 4.69361C37.7551 4.60927 37.6415 4.55977 37.5095 4.54511L34.4295 4.09411L33.0435 1.24511Z" fill="#FACC15"/>
<path d="M46.4185 1.24511C46.3598 1.12777 46.2755 1.03427 46.1655 0.964606C46.0555 0.894939 45.9345 0.860106 45.8025 0.860106C45.6705 0.860106 45.5476 0.894939 45.434 0.964606C45.3203 1.03427 45.2341 1.12777 45.1755 1.24511L43.8005 4.09411L40.7095 4.54511C40.5848 4.55977 40.4711 4.60927 40.3685 4.69361C40.2658 4.77794 40.1961 4.88244 40.1595 5.00711C40.1228 5.13177 40.1191 5.25827 40.1485 5.38661C40.1778 5.51494 40.2401 5.62311 40.3355 5.71111L42.5685 7.93311L42.0405 11.0571C42.0185 11.1891 42.0331 11.3138 42.0845 11.4311C42.1358 11.5484 42.2128 11.6474 42.3155 11.7281C42.4181 11.8088 42.5355 11.8528 42.6675 11.8601C42.7995 11.8674 42.9241 11.8418 43.0415 11.7831L45.8025 10.3091L48.5635 11.7831C48.6808 11.8418 48.8036 11.8674 48.932 11.8601C49.0603 11.8528 49.1795 11.8106 49.2895 11.7336C49.3995 11.6566 49.4783 11.5576 49.526 11.4366C49.5736 11.3156 49.5865 11.1891 49.5645 11.0571L49.0255 7.93311L51.2695 5.71111C51.3648 5.62311 51.4271 5.51494 51.4565 5.38661C51.4858 5.25827 51.4785 5.13177 51.4345 5.00711C51.3905 4.88244 51.3208 4.77794 51.2255 4.69361C51.1301 4.60927 51.0165 4.55977 50.8845 4.54511L47.8045 4.09411L46.4185 1.24511Z" fill="#FACC15"/>
<path d="M59.7935 1.24511C59.7348 1.12777 59.6505 1.03427 59.5405 0.964606C59.4305 0.894939 59.3095 0.860106 59.1775 0.860106C59.0455 0.860106 58.9226 0.894939 58.809 0.964606C58.6953 1.03427 58.6091 1.12777 58.5505 1.24511L57.1755 4.09411L54.0845 4.54511C53.9598 4.55977 53.8461 4.60927 53.7435 4.69361C53.6408 4.77794 53.5711 4.88244 53.5345 5.00711C53.4978 5.13177 53.4941 5.25827 53.5235 5.38661C53.5528 5.51494 53.6151 5.62311 53.7105 5.71111L55.9435 7.93311L55.4155 11.0571C55.3935 11.1891 55.4081 11.3138 55.4595 11.4311C55.5108 11.5484 55.5878 11.6474 55.6905 11.7281C55.7931 11.8088 55.9105 11.8528 56.0425 11.8601C56.1745 11.8674 56.2991 11.8418 56.4165 11.7831L59.1775 10.3091L61.9385 11.7831C62.0558 11.8418 62.1786 11.8674 62.307 11.8601C62.4353 11.8528 62.5545 11.8106 62.6645 11.7336C62.7745 11.6566 62.8533 11.5576 62.901 11.4366C62.9486 11.3156 62.9615 11.1891 62.9395 11.0571L62.4005 7.93311L64.6445 5.71111C64.7398 5.62311 64.8021 5.51494 64.8315 5.38661C64.8608 5.25827 64.8535 5.13177 64.8095 5.00711C64.7655 4.88244 64.6958 4.77794 64.6005 4.69361C64.5051 4.60927 64.3915 4.55977 64.2595 4.54511L61.1795 4.09411L59.7935 1.24511Z" fill="#FACC15"/>
</g>
</g>
</g>
<defs>
<clipPath id="clip0_6314_4882">
<rect width="66.88" height="11" fill="white" transform="translate(0 0.860107)"/>
</clipPath>
<clipPath id="clip1_6314_4882">
<rect width="66.88" height="11" fill="white" transform="matrix(1 0 0 -1 0 11.8601)"/>
</clipPath>
<clipPath id="clip2_6314_4882">
<rect width="62.45" height="11" fill="white" transform="translate(0 0.860107)"/>
</clipPath>
<clipPath id="clip3_6314_4882">
<rect width="66.88" height="11" fill="white" transform="matrix(1 0 0 -1 0 11.8601)"/>
</clipPath>
</defs>
</svg>
