<svg width="15" height="16" viewBox="0 0 15 16" fill="none" xmlns="http://www.w3.org/2000/svg">
<g clip-path="url(#clip0_6314_2637)">
<path d="M4.03766 13.1846H1.32266V4.42457H4.03766V13.1846ZM2.67266 3.22457C2.39266 3.22457 2.13016 3.15207 1.88516 3.00707C1.64016 2.86207 1.44766 2.66957 1.30766 2.42957C1.16766 2.18957 1.09766 1.92457 1.09766 1.63457C1.09766 1.34457 1.16766 1.07957 1.30766 0.839571C1.44766 0.59957 1.63766 0.409571 1.87766 0.26957C2.11766 0.129571 2.38266 0.0595703 2.67266 0.0595703C2.96266 0.0595703 3.22766 0.129571 3.46766 0.26957C3.70766 0.409571 3.89766 0.59957 4.03766 0.839571C4.17766 1.07957 4.24766 1.34457 4.24766 1.63457C4.24766 1.92457 4.17766 2.18957 4.03766 2.42957C3.89766 2.66957 3.70516 2.86207 3.46016 3.00707C3.21516 3.15207 2.95266 3.22457 2.67266 3.22457ZM14.2227 13.1846H11.5077V8.92457C11.5077 8.46457 11.4877 8.11457 11.4477 7.87457C11.3877 7.48457 11.2627 7.18457 11.0727 6.97457C10.8527 6.72457 10.5277 6.59957 10.0977 6.59957C9.44766 6.59957 8.99766 6.82957 8.74766 7.28957C8.55766 7.63957 8.46266 8.15957 8.46266 8.84957V13.1846H5.74766V4.42457H8.35766V5.60957H8.38766C8.58766 5.22957 8.89766 4.90957 9.31766 4.64957C9.79766 4.34957 10.3477 4.19957 10.9677 4.19957C11.8377 4.19957 12.5277 4.38457 13.0377 4.75457C13.4877 5.08457 13.8027 5.57957 13.9827 6.23957C14.1427 6.78957 14.2227 7.49957 14.2227 8.36957V13.1846Z" fill="#0077B5"/>
</g>
<defs>
<clipPath id="clip0_6314_2637">
<rect width="15" height="15" fill="white" transform="matrix(1 0 0 -1 0 15.0596)"/>
</clipPath>
</defs>
</svg>
