<svg width="17" height="17" viewBox="0 0 17 17" fill="none" xmlns="http://www.w3.org/2000/svg">
<path d="M8.66816 4.95938C8.01749 4.95938 7.41749 5.12205 6.86816 5.44738C6.31882 5.77272 5.88149 6.21005 5.55616 6.75938C5.23082 7.30872 5.06816 7.90872 5.06816 8.55938C5.06816 9.21005 5.23082 9.81005 5.55616 10.3594C5.88149 10.9087 6.31882 11.3434 6.86816 11.6634C7.41749 11.9834 8.01749 12.1434 8.66816 12.1434C9.31882 12.1434 9.91882 11.9834 10.4682 11.6634C11.0175 11.3434 11.4522 10.9087 11.7722 10.3594C12.0922 9.81005 12.2522 9.21005 12.2522 8.55938C12.2522 7.90872 12.0922 7.30872 11.7722 6.75938C11.4522 6.21005 11.0175 5.77272 10.4682 5.44738C9.91882 5.12205 9.31882 4.95938 8.66816 4.95938ZM8.66816 10.8954C8.24149 10.8954 7.84949 10.7914 7.49216 10.5834C7.13482 10.3754 6.85216 10.09 6.64416 9.72738C6.43616 9.36472 6.33216 8.97538 6.33216 8.55938C6.33216 8.14338 6.43616 7.75405 6.64416 7.39138C6.85216 7.02872 7.13482 6.74338 7.49216 6.53538C7.84949 6.32738 8.24149 6.22338 8.66816 6.22338C9.09482 6.22338 9.48682 6.32738 9.84416 6.53538C10.2015 6.74338 10.4842 7.02605 10.6922 7.38338C10.9002 7.74072 11.0042 8.13272 11.0042 8.55938C11.0042 8.98605 10.9002 9.37805 10.6922 9.73538C10.4842 10.0927 10.1988 10.3754 9.83616 10.5834C9.47349 10.7914 9.08416 10.8954 8.66816 10.8954ZM13.2442 4.81538C13.2442 5.05005 13.1615 5.25005 12.9962 5.41538C12.8308 5.58072 12.6308 5.66338 12.3962 5.66338C12.1615 5.66338 11.9642 5.58072 11.8042 5.41538C11.6442 5.25005 11.5642 5.05005 11.5642 4.81538C11.5642 4.58072 11.6442 4.38338 11.8042 4.22338C11.9642 4.06338 12.1615 3.98338 12.3962 3.98338C12.6308 3.98338 12.8308 4.06338 12.9962 4.22338C13.1615 4.38338 13.2442 4.58072 13.2442 4.81538ZM15.6122 5.66338C15.5908 5.05538 15.5002 4.52738 15.3402 4.07938C15.1588 3.56738 14.8735 3.11938 14.4842 2.73538C14.0948 2.35138 13.6442 2.06872 13.1322 1.88738C12.6842 1.72738 12.1562 1.63138 11.5482 1.59938C10.9722 1.56738 10.0095 1.55138 8.66016 1.55138C7.31082 1.55138 6.34816 1.56738 5.77216 1.59938C5.15349 1.63138 4.62549 1.72738 4.18816 1.88738C3.67616 2.06872 3.22816 2.35138 2.84416 2.73538C2.46016 3.11938 2.17749 3.56738 1.99616 4.07938C1.82549 4.52738 1.72949 5.05538 1.70816 5.66338C1.67616 6.23938 1.66016 7.20205 1.66016 8.55138C1.66016 9.90072 1.67616 10.8634 1.70816 11.4394C1.72949 12.0474 1.82016 12.5754 1.98016 13.0234C2.16149 13.5354 2.44949 13.9887 2.84416 14.3834C3.23882 14.778 3.69216 15.0607 4.20416 15.2314C4.63082 15.3914 5.15349 15.482 5.77216 15.5034C6.34816 15.546 7.31082 15.5674 8.66016 15.5674C10.0095 15.5674 10.9722 15.546 11.5482 15.5034C12.1562 15.482 12.6842 15.3914 13.1322 15.2314C13.6442 15.05 14.0948 14.7647 14.4842 14.3754C14.8735 13.986 15.1588 13.5354 15.3402 13.0234C15.5002 12.5754 15.5908 12.0474 15.6122 11.4394C15.6442 10.8634 15.6602 9.90338 15.6602 8.55938C15.6602 7.21538 15.6442 6.25005 15.6122 5.66338ZM14.1242 12.6874C14.0068 12.986 13.8335 13.2527 13.6042 13.4874C13.3748 13.722 13.1055 13.898 12.7962 14.0154C12.4442 14.154 11.8735 14.2447 11.0842 14.2874C10.6362 14.3087 9.99082 14.314 9.14816 14.3034H8.18816C7.34549 14.314 6.70016 14.3087 6.25216 14.2874C5.45216 14.2447 4.88149 14.154 4.54016 14.0154C4.23082 13.898 3.96149 13.7247 3.73216 13.4954C3.50282 13.266 3.32949 12.9967 3.21216 12.6874C3.07349 12.3354 2.98282 11.7647 2.94016 10.9754C2.91882 10.5274 2.91349 9.88205 2.92416 9.03938V8.07938C2.91349 7.23672 2.91882 6.59138 2.94016 6.14338C2.98282 5.34338 3.07349 4.77272 3.21216 4.43138C3.32949 4.12205 3.50282 3.85272 3.73216 3.62338C3.96149 3.39405 4.23082 3.22072 4.54016 3.10338C4.88149 2.96472 5.44682 2.87405 6.23616 2.83138C6.68416 2.81005 7.33482 2.80472 8.18816 2.81538H9.14816C9.99082 2.80472 10.6362 2.81005 11.0842 2.83138C11.8735 2.87405 12.4442 2.96472 12.7962 3.10338C13.1055 3.22072 13.3748 3.39405 13.6042 3.62338C13.8335 3.85272 14.0068 4.12205 14.1242 4.43138C14.2628 4.77272 14.3535 5.33805 14.3962 6.12738C14.4175 6.57538 14.4228 7.22605 14.4122 8.07938V9.03938C14.4228 9.88205 14.4175 10.5274 14.3962 10.9754C14.3535 11.7647 14.2628 12.3354 14.1242 12.6874Z" fill="#FD1D1D"/>
</svg>
