<svg width="22" height="22" viewBox="0 0 22 22" fill="none" xmlns="http://www.w3.org/2000/svg">
<path d="M21.2556 20.204L17.1476 16.096C17.8582 15.264 18.4129 14.3237 18.8116 13.275C19.2102 12.2263 19.4096 11.1387 19.4096 10.012C19.4096 8.296 18.9762 6.70134 18.1096 5.228C17.2776 3.78934 16.1422 2.64534 14.7036 1.796C13.2302 0.929337 11.6269 0.496002 9.89356 0.496002C8.16023 0.496002 6.5569 0.929337 5.08356 1.796C3.6449 2.628 2.5009 3.75467 1.65156 5.176C0.784896 6.66667 0.351562 8.27434 0.351562 9.999C0.351562 11.7237 0.784896 13.3227 1.65156 14.796C2.48356 16.2347 3.61023 17.3787 5.03156 18.228C6.52223 19.112 8.13423 19.554 9.86756 19.554C10.9942 19.554 12.0819 19.3547 13.1306 18.956C14.1792 18.5573 15.1196 18.0027 15.9516 17.292L20.0596 21.4C20.1116 21.452 20.1896 21.4997 20.2936 21.543C20.3976 21.5863 20.5016 21.608 20.6056 21.608C20.7096 21.608 20.8136 21.5863 20.9176 21.543C21.0216 21.4997 21.0996 21.452 21.1516 21.4C21.3596 21.192 21.4679 20.984 21.4766 20.776C21.4852 20.568 21.4116 20.3773 21.2556 20.204ZM2.06756 9.908C2.06756 8.48667 2.4229 7.16934 3.13356 5.956C3.8269 4.79467 4.75423 3.86734 5.91556 3.174C7.1289 2.46334 8.44623 2.108 9.86756 2.108C11.2889 2.108 12.6062 2.472 13.8196 3.2C14.9982 3.89334 15.9342 4.838 16.6276 6.034C17.3209 7.23 17.6676 8.53 17.6676 9.934C17.6676 11.338 17.3036 12.6467 16.5756 13.86C15.8822 15.0387 14.9376 15.9747 13.7416 16.668C12.5456 17.3613 11.2542 17.708 9.86756 17.708C8.46356 17.7427 7.14623 17.4047 5.91556 16.694C4.75423 16.018 3.82256 15.0733 3.12056 13.86C2.41856 12.6467 2.06756 11.3293 2.06756 9.908Z" fill="black"/>
</svg>
