<svg width="15" height="16" viewBox="0 0 15 16" fill="none" xmlns="http://www.w3.org/2000/svg">
<g clip-path="url(#clip0_6314_2631)">
<path d="M13.6152 4.49941C13.6252 4.58941 13.6302 4.72441 13.6302 4.90441C13.6302 5.94441 13.4402 6.96941 13.0602 7.97941C12.6702 9.03941 12.1102 9.97941 11.3802 10.7994C10.6002 11.6794 9.68516 12.3644 8.63516 12.8544C7.49516 13.3844 6.24516 13.6494 4.88516 13.6494C4.02516 13.6494 3.19516 13.5319 2.39516 13.2969C1.59516 13.0619 0.850156 12.7194 0.160156 12.2694C0.420156 12.2994 0.670156 12.3144 0.910156 12.3144C1.61016 12.3144 2.28766 12.1994 2.94266 11.9694C3.59766 11.7394 4.19016 11.4144 4.72016 10.9944C4.05016 10.9844 3.45266 10.7794 2.92766 10.3794C2.40266 9.97941 2.04016 9.47441 1.84016 8.86441C2.04016 8.89441 2.23516 8.90941 2.42516 8.90941C2.72516 8.90941 2.99516 8.87441 3.23516 8.80441C2.76516 8.71441 2.34516 8.52441 1.97516 8.23441C1.60516 7.94441 1.31266 7.58691 1.09766 7.16191C0.882656 6.73691 0.775156 6.27941 0.775156 5.78941V5.74441C1.18516 5.98441 1.64516 6.11441 2.15516 6.13441C1.73516 5.86441 1.40266 5.50191 1.15766 5.04691C0.912656 4.59191 0.790156 4.10441 0.790156 3.58441C0.790156 3.02441 0.930156 2.50441 1.21016 2.02441C1.98016 2.97441 2.90516 3.72941 3.98516 4.28941C5.09516 4.85941 6.28016 5.17941 7.54016 5.24941C7.49016 4.99941 7.46516 4.76441 7.46516 4.54441C7.46516 3.98441 7.60266 3.46941 7.87766 2.99941C8.15266 2.52941 8.52516 2.15691 8.99516 1.88191C9.46516 1.60691 9.98016 1.46941 10.5402 1.46941C10.9802 1.46941 11.3952 1.55691 11.7852 1.73191C12.1752 1.90691 12.5102 2.14441 12.7902 2.44441C13.5002 2.30441 14.1502 2.05441 14.7402 1.69441C14.6302 2.05441 14.4577 2.37941 14.2227 2.66941C13.9877 2.95941 13.7102 3.19941 13.3902 3.38941C13.9602 3.32941 14.5502 3.16941 15.1602 2.90941C14.7402 3.52941 14.2252 4.05941 13.6152 4.49941Z" fill="#1DA1F2"/>
</g>
<defs>
<clipPath id="clip0_6314_2631">
<rect width="15" height="15" fill="white" transform="matrix(1 0 0 -1 0 15.0596)"/>
</clipPath>
</defs>
</svg>
