<svg width="15" height="16" viewBox="0 0 15 16" fill="none" xmlns="http://www.w3.org/2000/svg">
<g clip-path="url(#clip0_6314_2628)">
<path d="M10.4727 8.48957L10.8927 5.77457H8.28266V4.01957C8.28266 3.59957 8.39266 3.26457 8.61266 3.01457C8.88266 2.70457 9.28266 2.54957 9.81266 2.54957H10.9977V0.239571L10.3377 0.14957C9.80766 0.089571 9.32766 0.0595703 8.89766 0.0595703C8.17766 0.0595703 7.55266 0.20207 7.02266 0.487071C6.49266 0.772071 6.08266 1.18957 5.79266 1.73957C5.50266 2.28957 5.35766 2.94957 5.35766 3.71957V5.77457H2.97266V8.48957H5.35766V15.0596H8.28266V8.48957H10.4727Z" fill="#1877F2"/>
</g>
<defs>
<clipPath id="clip0_6314_2628">
<rect width="15" height="15" fill="white" transform="matrix(1 0 0 -1 0 15.0596)"/>
</clipPath>
</defs>
</svg>
