<svg width="68" height="12" viewBox="0 0 68 12" fill="none" xmlns="http://www.w3.org/2000/svg">
<g clip-path="url(#clip0_6314_4742)">
<g clip-path="url(#clip1_6314_4742)">
<path d="M6.79346 1.07506C6.7348 0.957729 6.65046 0.864229 6.54046 0.794562C6.43046 0.724895 6.30946 0.690063 6.17746 0.690063C6.04546 0.690063 5.92263 0.724895 5.80896 0.794562C5.69529 0.864229 5.60913 0.957729 5.55046 1.07506L4.17546 3.92406L1.08446 4.37506C0.959795 4.38973 0.846128 4.43923 0.743462 4.52356C0.640795 4.6079 0.571128 4.7124 0.534462 4.83706C0.497795 4.96173 0.494128 5.08823 0.523462 5.21656C0.552795 5.3449 0.615128 5.45306 0.710462 5.54106L2.94346 7.76306L2.41546 10.8871C2.39346 11.0191 2.40813 11.1437 2.45946 11.2611C2.5108 11.3784 2.5878 11.4774 2.69046 11.5581C2.79313 11.6387 2.91046 11.6827 3.04246 11.6901C3.17446 11.6974 3.29913 11.6717 3.41646 11.6131L6.17746 10.1391L8.93846 11.6131C9.05579 11.6717 9.17863 11.6974 9.30696 11.6901C9.4353 11.6827 9.55446 11.6406 9.66446 11.5636C9.77446 11.4866 9.8533 11.3876 9.90096 11.2666C9.94863 11.1456 9.96146 11.0191 9.93946 10.8871L9.40046 7.76306L11.6445 5.54106C11.7398 5.45306 11.8021 5.3449 11.8315 5.21656C11.8608 5.08823 11.8535 4.96173 11.8095 4.83706C11.7655 4.7124 11.6958 4.6079 11.6005 4.52356C11.5051 4.43923 11.3915 4.38973 11.2595 4.37506L8.17946 3.92406L6.79346 1.07506Z" fill="#D1D5DB"/>
<path d="M20.1685 1.07506C20.1098 0.957729 20.0255 0.864229 19.9155 0.794562C19.8055 0.724895 19.6845 0.690063 19.5525 0.690063C19.4205 0.690063 19.2976 0.724895 19.184 0.794562C19.0703 0.864229 18.9841 0.957729 18.9255 1.07506L17.5505 3.92406L14.4595 4.37506C14.3348 4.38973 14.2211 4.43923 14.1185 4.52356C14.0158 4.6079 13.9461 4.7124 13.9095 4.83706C13.8728 4.96173 13.8691 5.08823 13.8985 5.21656C13.9278 5.3449 13.9901 5.45306 14.0855 5.54106L16.3185 7.76306L15.7905 10.8871C15.7685 11.0191 15.7831 11.1437 15.8345 11.2611C15.8858 11.3784 15.9628 11.4774 16.0655 11.5581C16.1681 11.6387 16.2855 11.6827 16.4175 11.6901C16.5495 11.6974 16.6741 11.6717 16.7915 11.6131L19.5525 10.1391L22.3135 11.6131C22.4308 11.6717 22.5536 11.6974 22.682 11.6901C22.8103 11.6827 22.9295 11.6406 23.0395 11.5636C23.1495 11.4866 23.2283 11.3876 23.276 11.2666C23.3236 11.1456 23.3365 11.0191 23.3145 10.8871L22.7755 7.76306L25.0195 5.54106C25.1148 5.45306 25.1771 5.3449 25.2065 5.21656C25.2358 5.08823 25.2285 4.96173 25.1845 4.83706C25.1405 4.7124 25.0708 4.6079 24.9755 4.52356C24.8801 4.43923 24.7665 4.38973 24.6345 4.37506L21.5545 3.92406L20.1685 1.07506Z" fill="#D1D5DB"/>
<path d="M33.5435 1.07506C33.4848 0.957729 33.4005 0.864229 33.2905 0.794562C33.1805 0.724895 33.0595 0.690063 32.9275 0.690063C32.7955 0.690063 32.6726 0.724895 32.559 0.794562C32.4453 0.864229 32.3591 0.957729 32.3005 1.07506L30.9255 3.92406L27.8345 4.37506C27.7098 4.38973 27.5961 4.43923 27.4935 4.52356C27.3908 4.6079 27.3211 4.7124 27.2845 4.83706C27.2478 4.96173 27.2441 5.08823 27.2735 5.21656C27.3028 5.3449 27.3651 5.45306 27.4605 5.54106L29.6935 7.76306L29.1655 10.8871C29.1435 11.0191 29.1581 11.1437 29.2095 11.2611C29.2608 11.3784 29.3378 11.4774 29.4405 11.5581C29.5431 11.6387 29.6605 11.6827 29.7925 11.6901C29.9245 11.6974 30.0491 11.6717 30.1665 11.6131L32.9275 10.1391L35.6885 11.6131C35.8058 11.6717 35.9286 11.6974 36.057 11.6901C36.1853 11.6827 36.3045 11.6406 36.4145 11.5636C36.5245 11.4866 36.6033 11.3876 36.651 11.2666C36.6986 11.1456 36.7115 11.0191 36.6895 10.8871L36.1505 7.76306L38.3945 5.54106C38.4898 5.45306 38.5521 5.3449 38.5815 5.21656C38.6108 5.08823 38.6035 4.96173 38.5595 4.83706C38.5155 4.7124 38.4458 4.6079 38.3505 4.52356C38.2551 4.43923 38.1415 4.38973 38.0095 4.37506L34.9295 3.92406L33.5435 1.07506Z" fill="#D1D5DB"/>
<path d="M46.9185 1.07506C46.8598 0.957729 46.7755 0.864229 46.6655 0.794562C46.5555 0.724895 46.4345 0.690063 46.3025 0.690063C46.1705 0.690063 46.0476 0.724895 45.934 0.794562C45.8203 0.864229 45.7341 0.957729 45.6755 1.07506L44.3005 3.92406L41.2095 4.37506C41.0848 4.38973 40.9711 4.43923 40.8685 4.52356C40.7658 4.6079 40.6961 4.7124 40.6595 4.83706C40.6228 4.96173 40.6191 5.08823 40.6485 5.21656C40.6778 5.3449 40.7401 5.45306 40.8355 5.54106L43.0685 7.76306L42.5405 10.8871C42.5185 11.0191 42.5331 11.1437 42.5845 11.2611C42.6358 11.3784 42.7128 11.4774 42.8155 11.5581C42.9181 11.6387 43.0355 11.6827 43.1675 11.6901C43.2995 11.6974 43.4241 11.6717 43.5415 11.6131L46.3025 10.1391L49.0635 11.6131C49.1808 11.6717 49.3036 11.6974 49.432 11.6901C49.5603 11.6827 49.6795 11.6406 49.7895 11.5636C49.8995 11.4866 49.9783 11.3876 50.026 11.2666C50.0736 11.1456 50.0865 11.0191 50.0645 10.8871L49.5255 7.76306L51.7695 5.54106C51.8648 5.45306 51.9271 5.3449 51.9565 5.21656C51.9858 5.08823 51.9785 4.96173 51.9345 4.83706C51.8905 4.7124 51.8208 4.6079 51.7255 4.52356C51.6301 4.43923 51.5165 4.38973 51.3845 4.37506L48.3045 3.92406L46.9185 1.07506Z" fill="#D1D5DB"/>
<path d="M60.2935 1.07506C60.2348 0.957729 60.1505 0.864229 60.0405 0.794562C59.9305 0.724895 59.8095 0.690063 59.6775 0.690063C59.5455 0.690063 59.4226 0.724895 59.309 0.794562C59.1953 0.864229 59.1091 0.957729 59.0505 1.07506L57.6755 3.92406L54.5845 4.37506C54.4598 4.38973 54.3461 4.43923 54.2435 4.52356C54.1408 4.6079 54.0711 4.7124 54.0345 4.83706C53.9978 4.96173 53.9941 5.08823 54.0235 5.21656C54.0528 5.3449 54.1151 5.45306 54.2105 5.54106L56.4435 7.76306L55.9155 10.8871C55.8935 11.0191 55.9081 11.1437 55.9595 11.2611C56.0108 11.3784 56.0878 11.4774 56.1905 11.5581C56.2931 11.6387 56.4105 11.6827 56.5425 11.6901C56.6745 11.6974 56.7991 11.6717 56.9165 11.6131L59.6775 10.1391L62.4385 11.6131C62.5558 11.6717 62.6786 11.6974 62.807 11.6901C62.9353 11.6827 63.0545 11.6406 63.1645 11.5636C63.2745 11.4866 63.3533 11.3876 63.401 11.2666C63.4486 11.1456 63.4615 11.0191 63.4395 10.8871L62.9005 7.76306L65.1445 5.54106C65.2398 5.45306 65.3021 5.3449 65.3315 5.21656C65.3608 5.08823 65.3535 4.96173 65.3095 4.83706C65.2655 4.7124 65.1958 4.6079 65.1005 4.52356C65.0051 4.43923 64.8915 4.38973 64.7595 4.37506L61.6795 3.92406L60.2935 1.07506Z" fill="#D1D5DB"/>
</g>
<g clip-path="url(#clip2_6314_4742)">
<g clip-path="url(#clip3_6314_4742)">
<path d="M6.79346 1.07506C6.7348 0.957729 6.65046 0.864229 6.54046 0.794562C6.43046 0.724895 6.30946 0.690063 6.17746 0.690063C6.04546 0.690063 5.92263 0.724895 5.80896 0.794562C5.69529 0.864229 5.60913 0.957729 5.55046 1.07506L4.17546 3.92406L1.08446 4.37506C0.959795 4.38973 0.846128 4.43923 0.743462 4.52356C0.640795 4.6079 0.571128 4.7124 0.534462 4.83706C0.497795 4.96173 0.494128 5.08823 0.523462 5.21656C0.552795 5.3449 0.615128 5.45306 0.710462 5.54106L2.94346 7.76306L2.41546 10.8871C2.39346 11.0191 2.40813 11.1437 2.45946 11.2611C2.5108 11.3784 2.5878 11.4774 2.69046 11.5581C2.79313 11.6387 2.91046 11.6827 3.04246 11.6901C3.17446 11.6974 3.29913 11.6717 3.41646 11.6131L6.17746 10.1391L8.93846 11.6131C9.05579 11.6717 9.17863 11.6974 9.30696 11.6901C9.4353 11.6827 9.55446 11.6406 9.66446 11.5636C9.77446 11.4866 9.8533 11.3876 9.90096 11.2666C9.94863 11.1456 9.96146 11.0191 9.93946 10.8871L9.40046 7.76306L11.6445 5.54106C11.7398 5.45306 11.8021 5.3449 11.8315 5.21656C11.8608 5.08823 11.8535 4.96173 11.8095 4.83706C11.7655 4.7124 11.6958 4.6079 11.6005 4.52356C11.5051 4.43923 11.3915 4.38973 11.2595 4.37506L8.17946 3.92406L6.79346 1.07506Z" fill="#FACC15"/>
<path d="M20.1685 1.07506C20.1098 0.957729 20.0255 0.864229 19.9155 0.794562C19.8055 0.724895 19.6845 0.690063 19.5525 0.690063C19.4205 0.690063 19.2976 0.724895 19.184 0.794562C19.0703 0.864229 18.9841 0.957729 18.9255 1.07506L17.5505 3.92406L14.4595 4.37506C14.3348 4.38973 14.2211 4.43923 14.1185 4.52356C14.0158 4.6079 13.9461 4.7124 13.9095 4.83706C13.8728 4.96173 13.8691 5.08823 13.8985 5.21656C13.9278 5.3449 13.9901 5.45306 14.0855 5.54106L16.3185 7.76306L15.7905 10.8871C15.7685 11.0191 15.7831 11.1437 15.8345 11.2611C15.8858 11.3784 15.9628 11.4774 16.0655 11.5581C16.1681 11.6387 16.2855 11.6827 16.4175 11.6901C16.5495 11.6974 16.6741 11.6717 16.7915 11.6131L19.5525 10.1391L22.3135 11.6131C22.4308 11.6717 22.5536 11.6974 22.682 11.6901C22.8103 11.6827 22.9295 11.6406 23.0395 11.5636C23.1495 11.4866 23.2283 11.3876 23.276 11.2666C23.3236 11.1456 23.3365 11.0191 23.3145 10.8871L22.7755 7.76306L25.0195 5.54106C25.1148 5.45306 25.1771 5.3449 25.2065 5.21656C25.2358 5.08823 25.2285 4.96173 25.1845 4.83706C25.1405 4.7124 25.0708 4.6079 24.9755 4.52356C24.8801 4.43923 24.7665 4.38973 24.6345 4.37506L21.5545 3.92406L20.1685 1.07506Z" fill="#FACC15"/>
<path d="M33.5435 1.07506C33.4848 0.957729 33.4005 0.864229 33.2905 0.794562C33.1805 0.724895 33.0595 0.690063 32.9275 0.690063C32.7955 0.690063 32.6726 0.724895 32.559 0.794562C32.4453 0.864229 32.3591 0.957729 32.3005 1.07506L30.9255 3.92406L27.8345 4.37506C27.7098 4.38973 27.5961 4.43923 27.4935 4.52356C27.3908 4.6079 27.3211 4.7124 27.2845 4.83706C27.2478 4.96173 27.2441 5.08823 27.2735 5.21656C27.3028 5.3449 27.3651 5.45306 27.4605 5.54106L29.6935 7.76306L29.1655 10.8871C29.1435 11.0191 29.1581 11.1437 29.2095 11.2611C29.2608 11.3784 29.3378 11.4774 29.4405 11.5581C29.5431 11.6387 29.6605 11.6827 29.7925 11.6901C29.9245 11.6974 30.0491 11.6717 30.1665 11.6131L32.9275 10.1391L35.6885 11.6131C35.8058 11.6717 35.9286 11.6974 36.057 11.6901C36.1853 11.6827 36.3045 11.6406 36.4145 11.5636C36.5245 11.4866 36.6033 11.3876 36.651 11.2666C36.6986 11.1456 36.7115 11.0191 36.6895 10.8871L36.1505 7.76306L38.3945 5.54106C38.4898 5.45306 38.5521 5.3449 38.5815 5.21656C38.6108 5.08823 38.6035 4.96173 38.5595 4.83706C38.5155 4.7124 38.4458 4.6079 38.3505 4.52356C38.2551 4.43923 38.1415 4.38973 38.0095 4.37506L34.9295 3.92406L33.5435 1.07506Z" fill="#FACC15"/>
<path d="M46.9185 1.07506C46.8598 0.957729 46.7755 0.864229 46.6655 0.794562C46.5555 0.724895 46.4345 0.690063 46.3025 0.690063C46.1705 0.690063 46.0476 0.724895 45.934 0.794562C45.8203 0.864229 45.7341 0.957729 45.6755 1.07506L44.3005 3.92406L41.2095 4.37506C41.0848 4.38973 40.9711 4.43923 40.8685 4.52356C40.7658 4.6079 40.6961 4.7124 40.6595 4.83706C40.6228 4.96173 40.6191 5.08823 40.6485 5.21656C40.6778 5.3449 40.7401 5.45306 40.8355 5.54106L43.0685 7.76306L42.5405 10.8871C42.5185 11.0191 42.5331 11.1437 42.5845 11.2611C42.6358 11.3784 42.7128 11.4774 42.8155 11.5581C42.9181 11.6387 43.0355 11.6827 43.1675 11.6901C43.2995 11.6974 43.4241 11.6717 43.5415 11.6131L46.3025 10.1391L49.0635 11.6131C49.1808 11.6717 49.3036 11.6974 49.432 11.6901C49.5603 11.6827 49.6795 11.6406 49.7895 11.5636C49.8995 11.4866 49.9783 11.3876 50.026 11.2666C50.0736 11.1456 50.0865 11.0191 50.0645 10.8871L49.5255 7.76306L51.7695 5.54106C51.8648 5.45306 51.9271 5.3449 51.9565 5.21656C51.9858 5.08823 51.9785 4.96173 51.9345 4.83706C51.8905 4.7124 51.8208 4.6079 51.7255 4.52356C51.6301 4.43923 51.5165 4.38973 51.3845 4.37506L48.3045 3.92406L46.9185 1.07506Z" fill="#FACC15"/>
</g>
</g>
</g>
<defs>
<clipPath id="clip0_6314_4742">
<rect width="66.88" height="11" fill="white" transform="translate(0.5 0.690063)"/>
</clipPath>
<clipPath id="clip1_6314_4742">
<rect width="66.88" height="11" fill="white" transform="matrix(1 0 0 -1 0.5 11.6901)"/>
</clipPath>
<clipPath id="clip2_6314_4742">
<rect width="40.13" height="11" fill="white" transform="translate(0.5 0.690063)"/>
</clipPath>
<clipPath id="clip3_6314_4742">
<rect width="66.88" height="11" fill="white" transform="matrix(1 0 0 -1 0.5 11.6901)"/>
</clipPath>
</defs>
</svg>
