<svg width="67" height="12" viewBox="0 0 67 12" fill="none" xmlns="http://www.w3.org/2000/svg">
<g clip-path="url(#clip0_6314_4772)">
<g clip-path="url(#clip1_6314_4772)">
<path d="M6.29346 1.07506C6.2348 0.957729 6.15046 0.864229 6.04046 0.794562C5.93046 0.724895 5.80946 0.690063 5.67746 0.690063C5.54546 0.690063 5.42263 0.724895 5.30896 0.794562C5.19529 0.864229 5.10913 0.957729 5.05046 1.07506L3.67546 3.92406L0.584462 4.37506C0.459795 4.38973 0.346128 4.43923 0.243462 4.52356C0.140795 4.6079 0.0711285 4.7124 0.0344618 4.83706C-0.00220486 4.96173 -0.00587153 5.08823 0.0234618 5.21656C0.0527951 5.3449 0.115128 5.45306 0.210462 5.54106L2.44346 7.76306L1.91546 10.8871C1.89346 11.0191 1.90813 11.1437 1.95946 11.2611C2.0108 11.3784 2.0878 11.4774 2.19046 11.5581C2.29313 11.6387 2.41046 11.6827 2.54246 11.6901C2.67446 11.6974 2.79913 11.6717 2.91646 11.6131L5.67746 10.1391L8.43846 11.6131C8.55579 11.6717 8.67863 11.6974 8.80696 11.6901C8.9353 11.6827 9.05446 11.6406 9.16446 11.5636C9.27446 11.4866 9.3533 11.3876 9.40096 11.2666C9.44863 11.1456 9.46146 11.0191 9.43946 10.8871L8.90046 7.76306L11.1445 5.54106C11.2398 5.45306 11.3021 5.3449 11.3315 5.21656C11.3608 5.08823 11.3535 4.96173 11.3095 4.83706C11.2655 4.7124 11.1958 4.6079 11.1005 4.52356C11.0051 4.43923 10.8915 4.38973 10.7595 4.37506L7.67946 3.92406L6.29346 1.07506Z" fill="#D1D5DB"/>
<path d="M19.6685 1.07506C19.6098 0.957729 19.5255 0.864229 19.4155 0.794562C19.3055 0.724895 19.1845 0.690063 19.0525 0.690063C18.9205 0.690063 18.7976 0.724895 18.684 0.794562C18.5703 0.864229 18.4841 0.957729 18.4255 1.07506L17.0505 3.92406L13.9595 4.37506C13.8348 4.38973 13.7211 4.43923 13.6185 4.52356C13.5158 4.6079 13.4461 4.7124 13.4095 4.83706C13.3728 4.96173 13.3691 5.08823 13.3985 5.21656C13.4278 5.3449 13.4901 5.45306 13.5855 5.54106L15.8185 7.76306L15.2905 10.8871C15.2685 11.0191 15.2831 11.1437 15.3345 11.2611C15.3858 11.3784 15.4628 11.4774 15.5655 11.5581C15.6681 11.6387 15.7855 11.6827 15.9175 11.6901C16.0495 11.6974 16.1741 11.6717 16.2915 11.6131L19.0525 10.1391L21.8135 11.6131C21.9308 11.6717 22.0536 11.6974 22.182 11.6901C22.3103 11.6827 22.4295 11.6406 22.5395 11.5636C22.6495 11.4866 22.7283 11.3876 22.776 11.2666C22.8236 11.1456 22.8365 11.0191 22.8145 10.8871L22.2755 7.76306L24.5195 5.54106C24.6148 5.45306 24.6771 5.3449 24.7065 5.21656C24.7358 5.08823 24.7285 4.96173 24.6845 4.83706C24.6405 4.7124 24.5708 4.6079 24.4755 4.52356C24.3801 4.43923 24.2665 4.38973 24.1345 4.37506L21.0545 3.92406L19.6685 1.07506Z" fill="#D1D5DB"/>
<path d="M33.0435 1.07506C32.9848 0.957729 32.9005 0.864229 32.7905 0.794562C32.6805 0.724895 32.5595 0.690063 32.4275 0.690063C32.2955 0.690063 32.1726 0.724895 32.059 0.794562C31.9453 0.864229 31.8591 0.957729 31.8005 1.07506L30.4255 3.92406L27.3345 4.37506C27.2098 4.38973 27.0961 4.43923 26.9935 4.52356C26.8908 4.6079 26.8211 4.7124 26.7845 4.83706C26.7478 4.96173 26.7441 5.08823 26.7735 5.21656C26.8028 5.3449 26.8651 5.45306 26.9605 5.54106L29.1935 7.76306L28.6655 10.8871C28.6435 11.0191 28.6581 11.1437 28.7095 11.2611C28.7608 11.3784 28.8378 11.4774 28.9405 11.5581C29.0431 11.6387 29.1605 11.6827 29.2925 11.6901C29.4245 11.6974 29.5491 11.6717 29.6665 11.6131L32.4275 10.1391L35.1885 11.6131C35.3058 11.6717 35.4286 11.6974 35.557 11.6901C35.6853 11.6827 35.8045 11.6406 35.9145 11.5636C36.0245 11.4866 36.1033 11.3876 36.151 11.2666C36.1986 11.1456 36.2115 11.0191 36.1895 10.8871L35.6505 7.76306L37.8945 5.54106C37.9898 5.45306 38.0521 5.3449 38.0815 5.21656C38.1108 5.08823 38.1035 4.96173 38.0595 4.83706C38.0155 4.7124 37.9458 4.6079 37.8505 4.52356C37.7551 4.43923 37.6415 4.38973 37.5095 4.37506L34.4295 3.92406L33.0435 1.07506Z" fill="#D1D5DB"/>
<path d="M46.4185 1.07506C46.3598 0.957729 46.2755 0.864229 46.1655 0.794562C46.0555 0.724895 45.9345 0.690063 45.8025 0.690063C45.6705 0.690063 45.5476 0.724895 45.434 0.794562C45.3203 0.864229 45.2341 0.957729 45.1755 1.07506L43.8005 3.92406L40.7095 4.37506C40.5848 4.38973 40.4711 4.43923 40.3685 4.52356C40.2658 4.6079 40.1961 4.7124 40.1595 4.83706C40.1228 4.96173 40.1191 5.08823 40.1485 5.21656C40.1778 5.3449 40.2401 5.45306 40.3355 5.54106L42.5685 7.76306L42.0405 10.8871C42.0185 11.0191 42.0331 11.1437 42.0845 11.2611C42.1358 11.3784 42.2128 11.4774 42.3155 11.5581C42.4181 11.6387 42.5355 11.6827 42.6675 11.6901C42.7995 11.6974 42.9241 11.6717 43.0415 11.6131L45.8025 10.1391L48.5635 11.6131C48.6808 11.6717 48.8036 11.6974 48.932 11.6901C49.0603 11.6827 49.1795 11.6406 49.2895 11.5636C49.3995 11.4866 49.4783 11.3876 49.526 11.2666C49.5736 11.1456 49.5865 11.0191 49.5645 10.8871L49.0255 7.76306L51.2695 5.54106C51.3648 5.45306 51.4271 5.3449 51.4565 5.21656C51.4858 5.08823 51.4785 4.96173 51.4345 4.83706C51.3905 4.7124 51.3208 4.6079 51.2255 4.52356C51.1301 4.43923 51.0165 4.38973 50.8845 4.37506L47.8045 3.92406L46.4185 1.07506Z" fill="#D1D5DB"/>
<path d="M59.7935 1.07506C59.7348 0.957729 59.6505 0.864229 59.5405 0.794562C59.4305 0.724895 59.3095 0.690063 59.1775 0.690063C59.0455 0.690063 58.9226 0.724895 58.809 0.794562C58.6953 0.864229 58.6091 0.957729 58.5505 1.07506L57.1755 3.92406L54.0845 4.37506C53.9598 4.38973 53.8461 4.43923 53.7435 4.52356C53.6408 4.6079 53.5711 4.7124 53.5345 4.83706C53.4978 4.96173 53.4941 5.08823 53.5235 5.21656C53.5528 5.3449 53.6151 5.45306 53.7105 5.54106L55.9435 7.76306L55.4155 10.8871C55.3935 11.0191 55.4081 11.1437 55.4595 11.2611C55.5108 11.3784 55.5878 11.4774 55.6905 11.5581C55.7931 11.6387 55.9105 11.6827 56.0425 11.6901C56.1745 11.6974 56.2991 11.6717 56.4165 11.6131L59.1775 10.1391L61.9385 11.6131C62.0558 11.6717 62.1786 11.6974 62.307 11.6901C62.4353 11.6827 62.5545 11.6406 62.6645 11.5636C62.7745 11.4866 62.8533 11.3876 62.901 11.2666C62.9486 11.1456 62.9615 11.0191 62.9395 10.8871L62.4005 7.76306L64.6445 5.54106C64.7398 5.45306 64.8021 5.3449 64.8315 5.21656C64.8608 5.08823 64.8535 4.96173 64.8095 4.83706C64.7655 4.7124 64.6958 4.6079 64.6005 4.52356C64.5051 4.43923 64.3915 4.38973 64.2595 4.37506L61.1795 3.92406L59.7935 1.07506Z" fill="#D1D5DB"/>
</g>
<g clip-path="url(#clip2_6314_4772)">
<g clip-path="url(#clip3_6314_4772)">
<path d="M6.29346 1.07506C6.2348 0.957729 6.15046 0.864229 6.04046 0.794562C5.93046 0.724895 5.80946 0.690063 5.67746 0.690063C5.54546 0.690063 5.42263 0.724895 5.30896 0.794562C5.19529 0.864229 5.10913 0.957729 5.05046 1.07506L3.67546 3.92406L0.584462 4.37506C0.459795 4.38973 0.346128 4.43923 0.243462 4.52356C0.140795 4.6079 0.0711285 4.7124 0.0344618 4.83706C-0.00220486 4.96173 -0.00587153 5.08823 0.0234618 5.21656C0.0527951 5.3449 0.115128 5.45306 0.210462 5.54106L2.44346 7.76306L1.91546 10.8871C1.89346 11.0191 1.90813 11.1437 1.95946 11.2611C2.0108 11.3784 2.0878 11.4774 2.19046 11.5581C2.29313 11.6387 2.41046 11.6827 2.54246 11.6901C2.67446 11.6974 2.79913 11.6717 2.91646 11.6131L5.67746 10.1391L8.43846 11.6131C8.55579 11.6717 8.67863 11.6974 8.80696 11.6901C8.9353 11.6827 9.05446 11.6406 9.16446 11.5636C9.27446 11.4866 9.3533 11.3876 9.40096 11.2666C9.44863 11.1456 9.46146 11.0191 9.43946 10.8871L8.90046 7.76306L11.1445 5.54106C11.2398 5.45306 11.3021 5.3449 11.3315 5.21656C11.3608 5.08823 11.3535 4.96173 11.3095 4.83706C11.2655 4.7124 11.1958 4.6079 11.1005 4.52356C11.0051 4.43923 10.8915 4.38973 10.7595 4.37506L7.67946 3.92406L6.29346 1.07506Z" fill="#FACC15"/>
<path d="M19.6685 1.07506C19.6098 0.957729 19.5255 0.864229 19.4155 0.794562C19.3055 0.724895 19.1845 0.690063 19.0525 0.690063C18.9205 0.690063 18.7976 0.724895 18.684 0.794562C18.5703 0.864229 18.4841 0.957729 18.4255 1.07506L17.0505 3.92406L13.9595 4.37506C13.8348 4.38973 13.7211 4.43923 13.6185 4.52356C13.5158 4.6079 13.4461 4.7124 13.4095 4.83706C13.3728 4.96173 13.3691 5.08823 13.3985 5.21656C13.4278 5.3449 13.4901 5.45306 13.5855 5.54106L15.8185 7.76306L15.2905 10.8871C15.2685 11.0191 15.2831 11.1437 15.3345 11.2611C15.3858 11.3784 15.4628 11.4774 15.5655 11.5581C15.6681 11.6387 15.7855 11.6827 15.9175 11.6901C16.0495 11.6974 16.1741 11.6717 16.2915 11.6131L19.0525 10.1391L21.8135 11.6131C21.9308 11.6717 22.0536 11.6974 22.182 11.6901C22.3103 11.6827 22.4295 11.6406 22.5395 11.5636C22.6495 11.4866 22.7283 11.3876 22.776 11.2666C22.8236 11.1456 22.8365 11.0191 22.8145 10.8871L22.2755 7.76306L24.5195 5.54106C24.6148 5.45306 24.6771 5.3449 24.7065 5.21656C24.7358 5.08823 24.7285 4.96173 24.6845 4.83706C24.6405 4.7124 24.5708 4.6079 24.4755 4.52356C24.3801 4.43923 24.2665 4.38973 24.1345 4.37506L21.0545 3.92406L19.6685 1.07506Z" fill="#FACC15"/>
<path d="M33.0435 1.07506C32.9848 0.957729 32.9005 0.864229 32.7905 0.794562C32.6805 0.724895 32.5595 0.690063 32.4275 0.690063C32.2955 0.690063 32.1726 0.724895 32.059 0.794562C31.9453 0.864229 31.8591 0.957729 31.8005 1.07506L30.4255 3.92406L27.3345 4.37506C27.2098 4.38973 27.0961 4.43923 26.9935 4.52356C26.8908 4.6079 26.8211 4.7124 26.7845 4.83706C26.7478 4.96173 26.7441 5.08823 26.7735 5.21656C26.8028 5.3449 26.8651 5.45306 26.9605 5.54106L29.1935 7.76306L28.6655 10.8871C28.6435 11.0191 28.6581 11.1437 28.7095 11.2611C28.7608 11.3784 28.8378 11.4774 28.9405 11.5581C29.0431 11.6387 29.1605 11.6827 29.2925 11.6901C29.4245 11.6974 29.5491 11.6717 29.6665 11.6131L32.4275 10.1391L35.1885 11.6131C35.3058 11.6717 35.4286 11.6974 35.557 11.6901C35.6853 11.6827 35.8045 11.6406 35.9145 11.5636C36.0245 11.4866 36.1033 11.3876 36.151 11.2666C36.1986 11.1456 36.2115 11.0191 36.1895 10.8871L35.6505 7.76306L37.8945 5.54106C37.9898 5.45306 38.0521 5.3449 38.0815 5.21656C38.1108 5.08823 38.1035 4.96173 38.0595 4.83706C38.0155 4.7124 37.9458 4.6079 37.8505 4.52356C37.7551 4.43923 37.6415 4.38973 37.5095 4.37506L34.4295 3.92406L33.0435 1.07506Z" fill="#FACC15"/>
<path d="M46.4185 1.07506C46.3598 0.957729 46.2755 0.864229 46.1655 0.794562C46.0555 0.724895 45.9345 0.690063 45.8025 0.690063C45.6705 0.690063 45.5476 0.724895 45.434 0.794562C45.3203 0.864229 45.2341 0.957729 45.1755 1.07506L43.8005 3.92406L40.7095 4.37506C40.5848 4.38973 40.4711 4.43923 40.3685 4.52356C40.2658 4.6079 40.1961 4.7124 40.1595 4.83706C40.1228 4.96173 40.1191 5.08823 40.1485 5.21656C40.1778 5.3449 40.2401 5.45306 40.3355 5.54106L42.5685 7.76306L42.0405 10.8871C42.0185 11.0191 42.0331 11.1437 42.0845 11.2611C42.1358 11.3784 42.2128 11.4774 42.3155 11.5581C42.4181 11.6387 42.5355 11.6827 42.6675 11.6901C42.7995 11.6974 42.9241 11.6717 43.0415 11.6131L45.8025 10.1391L48.5635 11.6131C48.6808 11.6717 48.8036 11.6974 48.932 11.6901C49.0603 11.6827 49.1795 11.6406 49.2895 11.5636C49.3995 11.4866 49.4783 11.3876 49.526 11.2666C49.5736 11.1456 49.5865 11.0191 49.5645 10.8871L49.0255 7.76306L51.2695 5.54106C51.3648 5.45306 51.4271 5.3449 51.4565 5.21656C51.4858 5.08823 51.4785 4.96173 51.4345 4.83706C51.3905 4.7124 51.3208 4.6079 51.2255 4.52356C51.1301 4.43923 51.0165 4.38973 50.8845 4.37506L47.8045 3.92406L46.4185 1.07506Z" fill="#FACC15"/>
<path d="M59.7935 1.07506C59.7348 0.957729 59.6505 0.864229 59.5405 0.794562C59.4305 0.724895 59.3095 0.690063 59.1775 0.690063C59.0455 0.690063 58.9226 0.724895 58.809 0.794562C58.6953 0.864229 58.6091 0.957729 58.5505 1.07506L57.1755 3.92406L54.0845 4.37506C53.9598 4.38973 53.8461 4.43923 53.7435 4.52356C53.6408 4.6079 53.5711 4.7124 53.5345 4.83706C53.4978 4.96173 53.4941 5.08823 53.5235 5.21656C53.5528 5.3449 53.6151 5.45306 53.7105 5.54106L55.9435 7.76306L55.4155 10.8871C55.3935 11.0191 55.4081 11.1437 55.4595 11.2611C55.5108 11.3784 55.5878 11.4774 55.6905 11.5581C55.7931 11.6387 55.9105 11.6827 56.0425 11.6901C56.1745 11.6974 56.2991 11.6717 56.4165 11.6131L59.1775 10.1391L61.9385 11.6131C62.0558 11.6717 62.1786 11.6974 62.307 11.6901C62.4353 11.6827 62.5545 11.6406 62.6645 11.5636C62.7745 11.4866 62.8533 11.3876 62.901 11.2666C62.9486 11.1456 62.9615 11.0191 62.9395 10.8871L62.4005 7.76306L64.6445 5.54106C64.7398 5.45306 64.8021 5.3449 64.8315 5.21656C64.8608 5.08823 64.8535 4.96173 64.8095 4.83706C64.7655 4.7124 64.6958 4.6079 64.6005 4.52356C64.5051 4.43923 64.3915 4.38973 64.2595 4.37506L61.1795 3.92406L59.7935 1.07506Z" fill="#FACC15"/>
</g>
</g>
</g>
<defs>
<clipPath id="clip0_6314_4772">
<rect width="66.88" height="11" fill="white" transform="translate(0 0.690063)"/>
</clipPath>
<clipPath id="clip1_6314_4772">
<rect width="66.88" height="11" fill="white" transform="matrix(1 0 0 -1 0 11.6901)"/>
</clipPath>
<clipPath id="clip2_6314_4772">
<rect width="53.5" height="11" fill="white" transform="translate(0 0.690063)"/>
</clipPath>
<clipPath id="clip3_6314_4772">
<rect width="66.88" height="11" fill="white" transform="matrix(1 0 0 -1 0 11.6901)"/>
</clipPath>
</defs>
</svg>
